<svg xmlns="http://www.w3.org/2000/svg" xmlns:xlink="http://www.w3.org/1999/xlink" width="500" zoomAndPan="magnify" viewBox="0 0 375 374.999991" height="500" preserveAspectRatio="xMidYMid meet" version="1.0"><path fill="#1d3c59" d="M 125.007812 0 L 125.007812 125.007812 L 0 125.007812 L 0 0 Z M 125.007812 0 " fill-opacity="1" fill-rule="evenodd"/><path fill="#fbba52" d="M 10.242188 62.503906 C 10.242188 91.273438 33.707031 114.765625 62.503906 114.765625 C 91.273438 114.765625 114.738281 91.273438 114.738281 62.503906 C 114.738281 33.734375 91.273438 10.242188 62.503906 10.242188 C 33.707031 10.242188 10.242188 33.734375 10.242188 62.503906 Z M 10.242188 62.503906 " fill-opacity="1" fill-rule="evenodd"/><path fill="#eae7d6" d="M 99.453125 25.554688 L 25.554688 99.453125 C 35.015625 108.914062 48.078125 114.765625 62.503906 114.765625 C 91.351562 114.765625 114.738281 91.351562 114.738281 62.503906 C 114.738281 48.078125 108.910156 35.015625 99.453125 25.554688 Z M 99.453125 25.554688 " fill-opacity="1" fill-rule="evenodd"/><path fill="#007d82" d="M 114.738281 62.503906 C 114.738281 91.351562 91.351562 114.765625 62.503906 114.765625 C 48.078125 114.765625 35.015625 108.910156 25.554688 99.453125 L 0 125.007812 L 125.007812 125.007812 L 125.007812 -0.00390625 L 99.453125 25.554688 C 108.910156 35.015625 114.738281 48.078125 114.738281 62.503906 Z M 114.738281 62.503906 " fill-opacity="1" fill-rule="evenodd"/><path fill="#fbba52" d="M 125.007812 125.007812 L 125.007812 0 L 249.992188 0 C 249.992188 69.035156 194.046875 125.007812 125.007812 125.007812 Z M 125.007812 125.007812 " fill-opacity="1" fill-rule="evenodd"/><path fill="#1d3c59" d="M 249.992188 0 L 249.992188 125.007812 L 375 125.007812 C 375 55.96875 319.03125 0 249.992188 0 Z M 249.992188 0 " fill-opacity="1" fill-rule="evenodd"/><path fill="#eae7d6" d="M 249.992188 65.144531 L 249.992188 125.007812 L 309.859375 125.007812 C 309.859375 91.953125 283.046875 65.144531 249.992188 65.144531 Z M 249.992188 65.144531 " fill-opacity="1" fill-rule="evenodd"/><path fill="#007d82" d="M 249.992188 249.992188 C 170.34375 246.304688 135.984375 197.339844 125.007812 125.007812 C 197.3125 135.984375 246.308594 170.34375 249.992188 249.992188 Z M 249.992188 249.992188 " fill-opacity="1" fill-rule="evenodd"/><path fill="#ff6e41" d="M 125.007812 125.007812 L 125.007812 249.992188 L 0 249.992188 L 0 125.007812 Z M 125.007812 125.007812 " fill-opacity="1" fill-rule="evenodd"/><path fill="#fbba52" d="M 16.332031 249.992188 C 16.332031 219.992188 28.480469 192.816406 48.15625 173.164062 C 67.808594 153.488281 94.984375 141.339844 125.007812 141.339844 L 125.007812 144.472656 C 95.84375 144.472656 69.480469 156.285156 50.378906 175.386719 C 31.304688 194.488281 19.492188 220.855469 19.492188 249.988281 L 16.332031 249.988281 Z M 16.332031 249.992188 " fill-opacity="1" fill-rule="nonzero"/><path fill="#fbba52" d="M 26.023438 249.992188 C 26.023438 222.683594 37.105469 197.9375 55.03125 180.011719 C 72.929688 162.113281 97.675781 151.035156 125.007812 151.035156 L 125.007812 154.195312 C 98.539062 154.195312 74.578125 164.910156 57.25 182.261719 C 39.925781 199.585938 29.1875 223.546875 29.1875 249.992188 Z M 26.023438 249.992188 " fill-opacity="1" fill-rule="nonzero"/><path fill="#fbba52" d="M 35.746094 249.992188 C 35.746094 225.351562 45.726562 203.035156 61.875 186.886719 C 78.023438 170.738281 100.339844 160.753906 125.007812 160.753906 L 125.007812 163.917969 C 101.226562 163.917969 79.695312 173.535156 64.125 189.132812 C 48.550781 204.707031 38.90625 226.238281 38.90625 249.992188 Z M 35.746094 249.992188 " fill-opacity="1" fill-rule="nonzero"/><path fill="#fbba52" d="M 45.464844 249.992188 C 45.464844 228.042969 54.347656 208.15625 68.746094 193.757812 C 83.144531 179.359375 103.03125 170.449219 125.007812 170.449219 L 125.007812 173.613281 C 103.894531 173.613281 84.816406 182.183594 70.996094 195.980469 C 57.171875 209.804688 48.601562 228.90625 48.601562 249.992188 Z M 45.464844 249.992188 " fill-opacity="1" fill-rule="nonzero"/><path fill="#fbba52" d="M 55.160156 249.992188 C 55.160156 230.734375 62.972656 213.25 75.621094 200.628906 C 88.269531 187.984375 105.722656 180.167969 125.007812 180.167969 L 125.007812 183.332031 C 106.585938 183.332031 89.914062 190.804688 77.84375 202.851562 C 65.796875 214.921875 58.324219 231.59375 58.324219 249.992188 Z M 55.160156 249.992188 " fill-opacity="1" fill-rule="nonzero"/><path fill="#fbba52" d="M 64.882812 249.992188 C 64.882812 233.398438 71.597656 218.371094 82.492188 207.503906 C 93.363281 196.605469 108.386719 189.890625 125.007812 189.890625 L 125.007812 193.050781 C 109.277344 193.050781 95.035156 199.429688 84.714844 209.722656 C 74.417969 220.042969 68.042969 234.285156 68.042969 249.992188 Z M 64.882812 249.992188 " fill-opacity="1" fill-rule="nonzero"/><path fill="#fbba52" d="M 74.578125 249.992188 C 74.578125 236.089844 80.222656 223.46875 89.339844 214.347656 C 98.484375 205.230469 111.082031 199.585938 125.007812 199.585938 L 125.007812 202.746094 C 111.941406 202.746094 100.132812 208.050781 91.585938 216.597656 C 83.042969 225.140625 77.738281 236.953125 77.738281 249.992188 Z M 74.578125 249.992188 " fill-opacity="1" fill-rule="nonzero"/><path fill="#fbba52" d="M 84.296875 249.992188 C 84.296875 238.753906 88.84375 228.589844 96.210938 221.222656 C 103.582031 213.851562 113.746094 209.304688 125.007812 209.304688 L 125.007812 212.46875 C 114.632812 212.46875 105.253906 216.675781 98.460938 223.46875 C 91.664062 230.261719 87.457031 239.644531 87.457031 249.992188 Z M 84.296875 249.992188 " fill-opacity="1" fill-rule="nonzero"/><path fill="#fbba52" d="M 94.015625 249.992188 C 94.015625 241.445312 97.464844 233.710938 103.085938 228.09375 C 108.703125 222.476562 116.4375 219.027344 125.007812 219.027344 L 125.007812 222.160156 C 117.300781 222.160156 110.347656 225.296875 105.332031 230.3125 C 100.289062 235.355469 97.179688 242.308594 97.179688 249.988281 L 94.015625 249.988281 Z M 94.015625 249.992188 " fill-opacity="1" fill-rule="nonzero"/><path fill="#fbba52" d="M 103.710938 249.992188 C 103.710938 244.136719 106.089844 238.808594 109.957031 234.964844 C 113.800781 231.101562 119.128906 228.722656 125.007812 228.722656 L 125.007812 231.882812 C 119.992188 231.882812 115.46875 233.921875 112.179688 237.1875 C 108.914062 240.480469 106.875 245 106.875 249.992188 Z M 103.710938 249.992188 " fill-opacity="1" fill-rule="nonzero"/><path fill="#fbba52" d="M 113.433594 249.992188 C 113.433594 246.804688 114.738281 243.929688 116.828125 241.839844 L 116.828125 241.8125 C 118.921875 239.722656 121.796875 238.441406 125.007812 238.441406 L 125.007812 241.601562 C 122.683594 241.601562 120.566406 242.542969 119.050781 244.058594 C 117.535156 245.574219 116.597656 247.664062 116.597656 249.992188 Z M 113.433594 249.992188 " fill-opacity="1" fill-rule="nonzero"/><path fill="#fbba52" d="M 0 375 C 69.035156 375 125.007812 319.03125 125.007812 249.992188 L 73.453125 249.992188 C 73.453125 290.570312 40.554688 323.445312 0 323.445312 Z M 0 375 " fill-opacity="1" fill-rule="evenodd"/><path fill="#1d3c59" d="M 62.503906 249.992188 C 62.503906 284.507812 34.519531 312.496094 0 312.496094 L 0 249.992188 Z M 62.503906 249.992188 " fill-opacity="1" fill-rule="evenodd"/></svg>